<?xml version="1.0" encoding="UTF-8"?>
<svg version="1.1" xmlns="http://www.w3.org/2000/svg" width="896" height="896">
<path d="M0 0 C295.68 0 591.36 0 896 0 C896 295.68 896 591.36 896 896 C600.32 896 304.64 896 0 896 C0 600.32 0 304.64 0 0 Z " fill="#355488" transform="translate(0,0)"/>
<path d="M0 0 C295.68 0 591.36 0 896 0 C896 295.68 896 591.36 896 896 C600.32 896 304.64 896 0 896 C0 600.32 0 304.64 0 0 Z M71 72 C70.9023999 73.64631067 70.87552732 75.29684332 70.8758015 76.9460445 C70.8735542 78.02616977 70.87130689 79.10629504 70.86899149 80.21915138 C70.87161852 81.4230439 70.87424554 82.62693642 70.87695217 83.86731052 C70.87579843 85.13858721 70.87464468 86.4098639 70.87345598 87.71966412 C70.87036778 91.27932892 70.87357741 94.83896546 70.87773425 98.39862817 C70.88114646 102.25063149 70.87879849 106.10263174 70.87715149 109.95463562 C70.8750664 116.72320823 70.87673323 123.49177207 70.88078487 130.26034367 C70.88686793 140.45585785 70.88715636 150.65136668 70.88631957 160.84688235 C70.88507524 177.92985987 70.88838019 195.01283356 70.89442444 212.09580994 C70.90258272 235.19436786 70.90452645 258.29291921 70.90539551 281.39147949 C70.91065278 336.94848711 70.92461379 392.50549363 70.9375 448.0625 C70.958125 572.121875 70.97875 696.18125 71 824 C319.49 824 567.98 824 824 824 C825.25973618 821.48052764 825.12514479 819.76489204 825.12534916 816.94373173 C825.12785268 815.86443046 825.1303562 814.7851292 825.13293558 813.67312184 C825.12942383 811.87654303 825.12942383 811.87654303 825.12584114 810.0436697 C825.12729458 808.77538134 825.12874802 807.50709299 825.13024551 806.20037165 C825.1341661 802.65265986 825.13179578 799.10497501 825.12846755 795.55726362 C825.12594454 791.70800032 825.1291853 787.85874133 825.13171089 784.00947863 C825.13533393 777.25414599 825.13520607 770.49882133 825.13266373 763.74348831 C825.12889351 753.69840556 825.13080857 743.65332958 825.13387203 733.60824688 C825.13914816 715.67183784 825.13867727 697.73543235 825.13579312 679.79902297 C825.13328158 664.10357457 825.13261899 648.40812747 825.13381577 632.71267891 C825.13389215 631.67320143 825.13396854 630.63372395 825.13404724 629.56274715 C825.13435855 625.34361054 825.13467695 621.12447393 825.135007 616.90533732 C825.13806871 577.29496513 825.1352882 537.68459521 825.1299101 498.07422337 C825.12516385 462.84952986 825.12558911 427.62483996 825.13037109 392.40014648 C825.13572059 352.86258516 825.13785196 313.32502584 825.13475883 273.7874642 C825.13443809 269.57614458 825.13412525 265.36482495 825.13381577 261.15350533 C825.13373669 260.11650289 825.13365761 259.07950045 825.13357614 258.0110737 C825.13243657 242.32122914 825.13377282 226.63138603 825.13629532 210.94154167 C825.13914777 193.11007009 825.13845432 175.27860263 825.13301457 157.44713157 C825.13006754 147.45596155 825.12990203 137.46480044 825.13366075 127.47363064 C825.13589123 120.81259123 825.1345293 114.15155901 825.13015598 107.49052067 C825.12776105 103.68688911 825.126997 99.88327536 825.13056196 96.07964431 C825.1343501 91.99657748 825.13052565 87.91355503 825.12584114 83.83048916 C825.12818231 82.63042879 825.13052347 81.43036841 825.13293558 80.19394258 C825.12918031 78.57874596 825.12918031 78.57874596 825.12534916 76.93091911 C825.1252814 75.99563883 825.12521365 75.06035854 825.12514383 74.09673643 C825.23349958 72.01225894 825.23349958 72.01225894 824 71 C822.35408563 70.90203143 820.7039336 70.87476994 819.05510616 70.87465084 C817.97518536 70.87214732 816.89526456 70.8696438 815.78261888 70.86706442 C814.57906397 70.86940558 813.37550906 70.87174675 812.13548279 70.87415886 C810.86497153 70.87270542 809.59446027 70.87125198 808.28544867 70.86975449 C804.72684051 70.8658289 801.16825917 70.86820679 797.6096514 70.87153245 C793.75031455 70.87405309 789.89098203 70.87081565 786.03164577 70.86828911 C779.25707564 70.8646643 772.48251347 70.86479501 765.70794296 70.86733627 C755.63423837 70.87110491 745.56054053 70.86919225 735.48683599 70.86612797 C717.49953035 70.86085053 699.51222826 70.86132326 681.52492228 70.86420688 C665.78434519 70.86671806 650.04376939 70.86738118 634.30319214 70.86618423 C633.26087322 70.86610785 632.21855431 70.86603146 631.14464998 70.86595276 C626.91400815 70.86564145 622.68336633 70.86532305 618.45272451 70.864993 C578.73023339 70.86193096 539.00774452 70.86471228 499.28525375 70.8700899 C463.96002472 70.87483584 428.6347993 70.87441122 393.30957031 70.86962891 C353.66177979 70.8642794 314.01399128 70.86214808 274.36620045 70.86524117 C270.14306959 70.86556191 265.91993872 70.86587475 261.69680786 70.86618423 C260.65689262 70.86626331 259.61697739 70.86634239 258.54554956 70.86642386 C242.81119876 70.86756346 227.07684939 70.86622712 211.34249878 70.86370468 C193.45976604 70.8608522 175.57703741 70.86154574 157.69430518 70.86698543 C147.67425709 70.86993248 137.65421788 70.87009795 127.63417001 70.86633925 C120.95384584 70.86410877 114.27352884 70.8654707 107.59320574 70.86984402 C103.77854198 70.87223896 99.96389598 70.87300299 96.14923275 70.86943804 C92.0543125 70.86564991 87.9594365 70.86947435 83.86451721 70.87415886 C82.05918485 70.87064711 82.05918485 70.87064711 80.21738112 70.86706442 C79.13746032 70.86956793 78.05753951 70.87207145 76.94489384 70.87465084 C75.53789426 70.87475247 75.53789426 70.87475247 74.10247046 70.87485617 C72.01293123 70.76578769 72.01293123 70.76578769 71 72 Z " fill="#35538A" transform="translate(0,0)"/>
<path d="M0 0 C1.0799208 -0.00250352 2.15984161 -0.00500704 3.27248728 -0.00758642 C5.07781965 -0.00407467 5.07781965 -0.00407467 6.91962337 -0.00049198 C8.19013463 -0.00194542 9.46064589 -0.00339886 10.76965749 -0.00489634 C14.32826565 -0.00882194 17.886847 -0.00644405 21.44545476 -0.00311839 C25.30479162 -0.00059775 29.16412414 -0.00383518 33.02346039 -0.00636172 C39.79803052 -0.00998654 46.57259269 -0.00985583 53.3471632 -0.00731456 C63.4208678 -0.00354592 73.49456563 -0.00545858 83.56827018 -0.00852287 C101.55557581 -0.0138003 119.54287791 -0.01332758 137.53018388 -0.01044396 C153.27076098 -0.00793277 169.01133677 -0.00726965 184.75191402 -0.0084666 C185.79423294 -0.00854299 186.83655185 -0.00861937 187.91045619 -0.00869807 C192.14109801 -0.00900939 196.37173983 -0.00932778 200.60238165 -0.00965784 C240.32487278 -0.01271988 280.04736164 -0.00993856 319.76985241 -0.00456094 C355.09508144 0.000185 390.42030686 -0.00023961 425.74553585 -0.00502193 C465.39332637 -0.01037144 505.04111489 -0.01250276 544.68890572 -0.00940967 C548.91203658 -0.00908893 553.13516744 -0.00877609 557.3582983 -0.0084666 C558.39821354 -0.00838752 559.43812878 -0.00830845 560.5095566 -0.00822697 C576.24390741 -0.00708738 591.97825677 -0.00842371 607.71260738 -0.01094615 C625.59534012 -0.01379864 643.47806876 -0.0131051 661.36080098 -0.00766541 C671.38084908 -0.00471836 681.40088828 -0.00455288 691.42093616 -0.00831159 C698.10126033 -0.01054207 704.78157732 -0.00918013 711.46190042 -0.00480682 C715.27656418 -0.00241188 719.09121018 -0.00164785 722.90587342 -0.0052128 C727.00079366 -0.00900093 731.09566967 -0.00517649 735.19058895 -0.00049198 C736.99592132 -0.00400373 736.99592132 -0.00400373 738.83772504 -0.00758642 C739.91764585 -0.0050829 740.99756665 -0.00257938 742.11021233 0 C743.5172119 0.00010164 743.5172119 0.00010164 744.95263571 0.00020533 C747.05510616 0.12534916 747.05510616 0.12534916 748.05510616 1.12534916 C748.15306426 2.76659915 748.18033621 4.41209758 748.18045533 6.05626827 C748.1842106 7.67146489 748.1842106 7.67146489 748.18804175 9.31929174 C748.18570058 10.51935211 748.18335941 11.71941248 748.1809473 12.95583832 C748.18240074 14.22267324 748.18385419 15.48950815 748.18535167 16.794732 C748.18927726 20.34303643 748.18689938 23.89131396 748.18357372 27.43961799 C748.18105306 31.28780019 748.18429052 35.13597805 748.18681705 38.98415965 C748.19044187 45.73917468 748.19031115 52.49418172 748.18776989 59.24919713 C748.18400124 69.29387711 748.18591392 79.33855032 748.1889782 89.38323025 C748.19425569 107.31899893 748.19378287 125.25476405 748.19089928 143.19053307 C748.18838803 158.88664059 748.18772501 174.58274681 748.18892193 190.27885449 C748.18903651 191.83795613 748.18903651 191.83795613 748.1891534 193.42855478 C748.18946472 197.64737147 748.18978311 201.86618816 748.19011316 206.08500484 C748.19317524 245.697076 748.19039387 285.30914489 748.18501627 324.9212157 C748.18027067 360.14575554 748.18069464 395.37029177 748.18547726 430.59483159 C748.19082728 470.13093033 748.19295777 509.66702707 748.18986499 549.20312613 C748.18954426 553.41476011 748.18923142 557.62639409 748.18892193 561.83802807 C748.18884285 562.87510959 748.18876377 563.9121911 748.1886823 564.98069933 C748.18754288 580.66963749 748.18887872 596.35857421 748.19140148 612.04751217 C748.19425456 629.88007734 748.19355916 647.71263838 748.18812074 665.54520302 C748.18517463 675.53615765 748.18500686 685.52710337 748.18876691 695.51805777 C748.19099853 702.18026544 748.18963336 708.84246591 748.18526214 715.50467251 C748.1828688 719.30816874 748.18209994 723.11164718 748.18566813 726.91514289 C748.18946124 730.99978329 748.18562824 735.08437942 748.1809473 739.16901886 C748.18328847 740.36673807 748.18562964 741.56445728 748.18804175 742.798471 C748.18553823 743.87777227 748.18303471 744.95707353 748.18045533 746.06908089 C748.18035369 747.47210296 748.18035369 747.47210296 748.18025 748.9034689 C748.05510616 751.12534916 748.05510616 751.12534916 747.05510616 753.12534916 C498.56510616 753.12534916 250.07510616 753.12534916 -5.94489384 753.12534916 C-5.96551884 629.06597416 -5.98614384 505.00659916 -6.00739384 377.18784916 C-6.01649784 337.93726567 -6.02560184 298.68668217 -6.03498173 258.24668705 C-6.03949833 210.51682866 -6.03949833 210.51682866 -6.04033756 188.21102726 C-6.04133544 171.51342908 -6.04565937 154.81583491 -6.05156726 138.11823786 C-6.05750303 121.11320445 -6.05973446 104.1081736 -6.05833879 87.10313919 C-6.05761822 76.9772084 -6.0596401 66.85128707 -6.06570143 56.72535802 C-6.06942615 50.05369698 -6.06958178 43.38204229 -6.06672918 36.71038084 C-6.06520548 32.90127515 -6.06532829 29.09218771 -6.06977642 25.28308392 C-6.07452342 21.18626206 -6.07165973 17.08948257 -6.06794167 12.99265969 C-6.07056869 11.78876717 -6.07319572 10.58487465 -6.07590235 9.34450055 C-6.07365504 8.26437528 -6.07140774 7.18425001 -6.06909233 6.07139367 C-6.06924831 5.13317021 -6.06940429 4.19494676 -6.069565 3.22829229 C-5.82905715 -0.82857476 -3.52049408 0.00025431 0 0 Z M19.05510616 25.12534916 C19.05510616 257.11534916 19.05510616 489.10534916 19.05510616 728.12534916 C251.04510616 728.12534916 483.03510616 728.12534916 722.05510616 728.12534916 C722.05510616 496.13534916 722.05510616 264.14534916 722.05510616 25.12534916 C490.06510616 25.12534916 258.07510616 25.12534916 19.05510616 25.12534916 Z " fill="#F9FAFC" transform="translate(76.9448938369751,70.8746508359909)"/>
<path d="M0 0 C34.32 0 68.64 0 104 0 C104 160.05 104 320.1 104 485 C69.68 485 35.36 485 0 485 C0 324.95 0 164.9 0 0 Z " fill="#FDFEFE" transform="translate(601,211)"/>
<path d="M0 0 C0.6720472 0.01281384 1.34409439 0.02562767 2.03650665 0.0388298 C10.00400142 0.19257518 17.97095521 0.36564667 25.9375 0.5625 C25.9375 0.8925 25.9375 1.2225 25.9375 1.5625 C110.4175 1.8925 194.8975 2.2225 281.9375 2.5625 C281.9375 3.5525 281.9375 4.5425 281.9375 5.5625 C60.5075 5.5625 -160.9225 5.5625 -389.0625 5.5625 C-389.0625 4.5725 -389.0625 3.5825 -389.0625 2.5625 C-381.8025 2.5625 -374.5425 2.5625 -367.0625 2.5625 C-367.0625 1.9025 -367.0625 1.2425 -367.0625 0.5625 C-364.7525 0.5625 -362.4425 0.5625 -360.0625 0.5625 C-360.0625 1.2225 -360.0625 1.8825 -360.0625 2.5625 C-358.32776428 2.54370789 -358.32776428 2.54370789 -356.5579834 2.52453613 C-341.22626108 2.35964004 -325.89442425 2.20736365 -310.5625 2.0625 C-308.67802973 2.04468412 -308.67802973 2.04468412 -306.75548935 2.02650833 C-262.46150559 1.61179493 -218.17078852 1.47296041 -173.875 1.5 C-173.15915112 1.50042423 -172.44330223 1.50084846 -171.70576096 1.50128555 C-153.49132838 1.51226506 -135.2769112 1.53217531 -117.0625 1.5625 C-117.0625 1.2325 -117.0625 0.9025 -117.0625 0.5625 C-104.85442 0.35721676 -92.64610961 0.17087645 -80.4375 0 C-79.07402372 -0.0190999 -79.07402372 -0.0190999 -77.68300247 -0.03858566 C-51.77983759 -0.39638014 -25.90159054 -0.49443203 0 0 Z " fill="#294679" transform="translate(517.0625,793.4375)"/>
<path d="M0 0 C3.92765182 7.85530364 4.40956755 19.53502336 2 28.0625 C1.505 29.5165625 1.505 29.5165625 1 31 C1.66 31.33 2.32 31.66 3 32 C3.03427364 97.27409108 3.06607334 162.54818324 3.08468628 227.82228088 C3.08496239 228.78811832 3.08523851 229.75395576 3.08552299 230.74906101 C3.09150859 251.73852371 3.09704898 272.72798651 3.10213066 293.71744945 C3.10462537 304.01044484 3.10721847 314.3034402 3.10986328 324.59643555 C3.1101248 325.6207208 3.11038632 326.64500606 3.11065576 327.70033026 C3.11918082 360.90966715 3.13420521 394.11899725 3.15259444 427.32833002 C3.17145502 461.45079621 3.18376982 495.57325864 3.18782998 529.69572996 C3.1884063 534.51356936 3.18905758 539.33140874 3.18975449 544.14924812 C3.18988933 545.09748255 3.19002418 546.04571697 3.19016311 547.02268577 C3.19252798 562.29621246 3.20180796 577.56972752 3.21366407 592.84324947 C3.22543174 608.19249017 3.22993766 623.54171933 3.22700275 638.89096438 C3.22547982 648.01395942 3.22955303 657.13691225 3.24159509 666.25989968 C3.2490888 672.3525168 3.24933157 678.44510624 3.24366363 684.53772526 C3.24064122 688.01019346 3.24078555 691.48258179 3.24976636 694.95504146 C3.25776281 698.69644927 3.25348393 702.43764885 3.24609566 706.17905331 C3.25134968 707.25599116 3.25660371 708.33292901 3.26201695 709.44250134 C3.23442816 715.60251682 2.56135962 721.03569161 1 727 C1.66 727 2.32 727 3 727 C2.88985294 730.25068154 2.75928788 733.50023328 2.625 736.75 C2.57859375 738.13058594 2.57859375 738.13058594 2.53125 739.5390625 C2.49257813 740.42851563 2.45390625 741.31796875 2.4140625 742.234375 C2.3826416 743.05131836 2.3512207 743.86826172 2.31884766 744.70996094 C2 747 2 747 0 751 C0 503.17 0 255.34 0 0 Z " fill="#2B4A7A" transform="translate(825,73)"/>
<path d="M0 0 C231.66 0 463.32 0 702 0 C702 1.65 702 3.3 702 5 C700.68 5.33 699.36 5.66 698 6 C697.67 4.68 697.34 3.36 697 2 C470.29 1.67 243.58 1.34 10 1 C10 2.32 10 3.64 10 5 C9.01 5.66 8.02 6.32 7 7 C6.21011855 8.95385067 6.21011855 8.95385067 5.8125 11.125 C5.544375 12.40375 5.27625 13.6825 5 15 C4.01 15 3.02 15 2 15 C1.67 16.32 1.34 17.64 1 19 C1.99 19.33 2.98 19.66 4 20 C4.05479286 21.8538252 4.09314594 23.7081388 4.125 25.5625 C4.14820312 26.59503906 4.17140625 27.62757812 4.1953125 28.69140625 C4 32 4 32 3.00299937 35.1057663 C1.67803593 39.60537699 1.72738968 43.95526253 1.75669765 48.61633301 C1.75468956 49.57101351 1.75268147 50.52569401 1.75061253 51.50930423 C1.74631404 54.71526033 1.75631837 57.92101173 1.76622009 61.12695312 C1.76606405 63.44650958 1.76502566 65.76606611 1.76317984 68.08562183 C1.76064439 74.46659081 1.77059442 80.84748921 1.7825278 87.22844529 C1.79309544 93.40326952 1.79228017 99.57809762 1.79262964 105.75292916 C1.79365085 118.39530481 1.80385018 131.03765739 1.81910515 143.68002319 C1.83418606 156.22854632 1.84465577 168.77706051 1.84918404 181.32559204 C1.84960794 182.49788596 1.84960794 182.49788596 1.85004041 183.69386258 C1.85144521 187.66407874 1.85275725 191.63429493 1.8540265 195.60451114 C1.86312198 223.75278617 1.88072877 251.90104982 1.90405273 280.04931641 C1.90546028 281.75171308 1.90686767 283.45410975 1.9082749 285.15650642 C1.9093213 286.4216207 1.9093213 286.4216207 1.91038884 287.71229285 C1.91391656 291.97748641 1.91744084 296.24267997 1.92095947 300.50787354 C1.92165793 301.35327871 1.92235639 302.19868389 1.92307602 303.0697074 C1.93919259 322.62508358 1.95284708 342.18046119 1.96557617 361.73583984 C1.96612229 362.571733 1.9666684 363.40762615 1.96723107 364.2688494 C1.97971465 383.41113526 1.99097313 402.55342133 1.99983311 421.69570923 C2.0003962 422.90835076 2.0003962 422.90835076 2.00097066 424.1454901 C2.0043402 431.42545364 2.00765909 438.70541721 2.0107208 445.98538089 C2.01832028 464.04871018 2.02882357 482.11202932 2.04690962 500.1753514 C2.05953149 512.79444607 2.06871705 525.41353914 2.07447498 538.03263885 C2.07770262 544.84341247 2.08266686 551.65417251 2.09228897 558.46494102 C2.13661372 590.65775566 1.85593484 622.81781841 1 655 C0.67 655 0.34 655 0 655 C0 438.85 0 222.7 0 0 Z " fill="#27436F" transform="translate(97,97)"/>
<path d="M0 0 C10.89 0 21.78 0 33 0 C33 0.33 33 0.66 33 1 C76.21215067 1.87723634 119.42007222 2.1033422 162.64038086 2.11352539 C163.30717317 2.11369152 163.97396547 2.11385764 164.6609636 2.1140288 C181.69680274 2.11802903 198.73263613 2.11303994 215.76847318 2.10463549 C227.07517233 2.09905748 238.38186954 2.09588385 249.68857002 2.09487724 C250.44756658 2.0948085 251.20656315 2.09473976 251.9885596 2.09466894 C255.84568828 2.09433044 259.70281697 2.09402912 263.55994565 2.09374207 C290.62956494 2.09166134 317.69918122 2.08498018 344.76879883 2.07543945 C371.008382 2.06620219 397.24796434 2.05914477 423.48754883 2.05493164 C424.7083785 2.05473435 424.7083785 2.05473435 425.9538714 2.05453308 C434.12989175 2.05321415 442.30591211 2.0519384 450.48193247 2.05069422 C467.12610301 2.04816042 483.7702735 2.04533917 500.41444397 2.04234314 C501.56145918 2.0421372 501.56145918 2.0421372 502.73164642 2.04192711 C553.48776555 2.03278151 604.24388293 2.016922 655 2 C655 2.66 655 3.32 655 4 C418.72 4 182.44 4 -61 4 C-60.67 3.34 -60.34 2.68 -60 2 C-40.2 2 -20.4 2 0 2 C0 1.34 0 0.68 0 0 Z " fill="#254684" transform="translate(144,66)"/>
<path d="M0 0 C187.77 0 375.54 0 569 0 C569 0.33 569 0.66 569 1 C555.47 1 541.94 1 528 1 C528 1.66 528 2.32 528 3 C443.52 3 359.04 3 272 3 C272 2.34 272 1.68 272 1 C182.24 1 92.48 1 0 1 C0 0.67 0 0.34 0 0 Z " fill="#284D84" transform="translate(160,827)"/>
<path d="M0 0 C0.33 0 0.66 0 1 0 C1.33 248.49 1.66 496.98 2 753 C1.34 753 0.68 753 0 753 C-0.00423194 752.13069509 -0.00846388 751.26139017 -0.01282406 750.36574268 C-0.11631737 729.17268723 -0.22498227 707.97966373 -0.33933926 686.78666401 C-0.39451881 676.53771878 -0.44797493 666.28877007 -0.49731445 656.03979492 C-0.54034416 647.10243807 -0.58666802 638.16510526 -0.63687855 629.22778577 C-0.66332904 624.49952962 -0.68817679 619.77127777 -0.70907402 615.04299355 C-0.72883483 610.58364923 -0.75303284 606.12435004 -0.78049088 601.66504669 C-0.78975949 600.03699511 -0.79747004 598.40893372 -0.80341911 596.78086662 C-0.8350532 588.37537673 -1.02755795 580.03874677 -1.77583218 571.65893364 C-2.0759317 568.09934733 -2.12950406 564.59193633 -2.1328125 561.01953125 C-2.13376923 560.35459152 -2.13472595 559.68965179 -2.13571167 559.00456238 C-2.13638014 557.63121442 -2.13462141 556.25786303 -2.13037109 554.88452148 C-2.12490658 552.77646013 -2.13040939 550.66860267 -2.13671875 548.56054688 C-2.13605957 547.2135412 -2.13478176 545.86653565 -2.1328125 544.51953125 C-2.13168457 543.31401611 -2.13055664 542.10850098 -2.12939453 540.86645508 C-2 538 -2 538 -1 536 C-0.90124259 532.98564438 -0.86373995 529.99436613 -0.87060547 526.97973633 C-0.86885315 526.04459198 -0.86710083 525.10944763 -0.86529541 524.14596558 C-0.86087926 521.04130215 -0.86381525 517.9366953 -0.8671875 514.83203125 C-0.86651411 512.67689503 -0.86554379 510.52175888 -0.86428833 508.36662292 C-0.86281145 503.84133178 -0.86496456 499.31606034 -0.86962891 494.79077148 C-0.87530913 488.99815954 -0.87205798 483.20559411 -0.86605644 477.41298389 C-0.86243601 472.9579585 -0.86359653 468.50294405 -0.86618423 464.04791832 C-0.86685029 461.91294029 -0.86603633 459.77796125 -0.86370468 457.64298439 C-0.86115577 454.6510418 -0.86505107 451.65917342 -0.87060547 448.66723633 C-0.86858124 447.78852371 -0.86655701 446.9098111 -0.86447144 446.00447083 C-0.88080757 441.23711958 -1.24597305 436.72064995 -2 432 C-2.0038743 430.030565 -1.95263153 428.06017672 -1.84375 426.09375 C-1.79089844 425.01996094 -1.73804687 423.94617188 -1.68359375 422.83984375 C-1.56119792 420.61328125 -1.43880208 418.38671875 -1.31640625 416.16015625 C-1.26355469 415.08636719 -1.21070312 414.01257813 -1.15625 412.90625 C-1.10275391 411.94009766 -1.04925781 410.97394531 -0.99414062 409.97851562 C-0.92138154 406.97258679 -0.92138154 406.97258679 -1.49801636 403.93577576 C-2.09361003 399.26605563 -2.09573681 394.74914596 -2.03759766 390.04907227 C-2.02957658 389.04935394 -2.0215555 388.04963562 -2.01329136 387.0196228 C-1.99485994 384.80762761 -1.9739689 382.59565193 -1.95097923 380.38369942 C-1.91261526 376.67655871 -1.88092854 372.96940706 -1.85066223 369.26219177 C-1.80453949 363.68608206 -1.7557922 358.11000491 -1.70504761 352.53393555 C-1.56101887 336.62822936 -1.44132702 320.72233012 -1.32421875 304.81640625 C-1.31764197 303.92983857 -1.31106518 303.04327088 -1.3042891 302.12983751 C-0.86878607 243.29934934 -0.68120276 184.46734262 -0.46223432 125.63573403 C-0.4346773 118.2342098 -0.40683343 110.83268667 -0.37899261 103.43116351 C-0.24935579 68.95412093 -0.12295865 34.4770671 0 0 Z " fill="#2D4582" transform="translate(70,72)"/>
<path d="M0 0 C0.33 0 0.66 0 1 0 C1 141.57 1 283.14 1 429 C-1.25044021 424.49911958 -1.25044021 424.49911958 -1.32076931 420.95885658 C-1.34101835 420.15780251 -1.36126738 419.35674843 -1.38213003 418.53141999 C-1.40004392 417.21801782 -1.40004392 417.21801782 -1.4183197 415.87808228 C-1.44795506 414.47355384 -1.44795506 414.47355384 -1.47818911 413.04065108 C-1.54066382 409.88087507 -1.58735827 406.72110281 -1.63256836 403.56103516 C-1.65133966 402.44753543 -1.67011097 401.33403571 -1.6894511 400.18679357 C-2.18292314 370.83951055 -2.04218442 341.49005648 -1.90999633 312.14044555 C-1.87377135 304.03827398 -1.84487914 295.93607994 -1.81623887 287.83387859 C-1.76474526 273.3117593 -1.70823924 258.78966442 -1.64819336 244.26757812 C-1.59072064 230.36426554 -1.53501114 216.46094823 -1.48217773 202.55761719 C-1.47892802 201.70270763 -1.4756783 200.84779808 -1.4723301 199.96698217 C-1.43655315 190.54278149 -1.40122939 181.11857914 -1.3661108 171.69437599 C-1.35665747 169.15941378 -1.34720251 166.62445158 -1.33774538 164.08948939 C-1.33149399 162.41287935 -1.32525011 160.73626929 -1.31901383 159.0596592 C-1.28024557 148.64526193 -1.23963018 138.23087448 -1.19679469 127.81649315 C-1.16908187 121.06999632 -1.14259991 114.32349475 -1.1162961 107.5769923 C-1.10773095 105.40077687 -1.09892811 103.2245625 -1.09008229 101.04834819 C-1.02785005 85.59311313 -0.99100692 70.13834577 -1.01581369 54.68298267 C-1.01946398 52.37607122 -1.02256505 50.06915964 -1.02551955 47.7622472 C-1.03430363 41.20222767 -1.04488631 34.64225913 -1.06831321 28.08227354 C-1.0788059 24.8263103 -1.08315407 21.5703364 -1.08872986 18.31436157 C-1.09469944 17.1486866 -1.10066903 15.98301163 -1.10681951 14.78201318 C-1.10770279 13.70681727 -1.10858607 12.63162137 -1.10949612 11.52384377 C-1.11248256 10.59610511 -1.11546901 9.66836646 -1.11854595 8.71251452 C-0.98883547 5.74453833 -0.54215103 2.91850715 0 0 Z " fill="#304D76" transform="translate(599,266)"/>
<path d="M0 0 C1.010625 0.0825 2.02125 0.165 3.0625 0.25 C3.7225 1.24 4.3825 2.23 5.0625 3.25 C-239.4675 3.25 -483.9975 3.25 -735.9375 3.25 C-735.9375 2.92 -735.9375 2.59 -735.9375 2.25 C-734.98453309 2.24893178 -734.98453309 2.24893178 -734.01231432 2.24784199 C-664.88153268 2.17031539 -595.75075248 2.0915596 -526.61997986 2.0063324 C-525.07229512 2.00442488 -525.07229512 2.00442488 -523.49334403 2.00247882 C-501.07261023 1.97483786 -478.65187672 1.94697489 -456.23114348 1.91888306 C-445.23685938 1.90510924 -434.24257521 1.8913845 -423.24829102 1.87768555 C-422.15419692 1.87632146 -421.06010283 1.87495738 -419.93285437 1.87355196 C-384.43652251 1.82931923 -348.9401878 1.78833098 -313.44385019 1.74901587 C-276.98275856 1.70861515 -240.52167225 1.66495997 -204.0605895 1.61717889 C-198.91692846 1.61043981 -193.77326737 1.60373815 -188.62960625 1.59705925 C-187.61720752 1.59574352 -186.60480879 1.59442779 -185.56173131 1.5930722 C-169.23034215 1.57194408 -152.89895097 1.55427165 -136.56755645 1.53787469 C-120.16993683 1.52133811 -103.77232482 1.50120099 -87.3747142 1.47733159 C-77.61906718 1.46324162 -67.86342612 1.45196919 -58.10777163 1.44463562 C-51.60364809 1.43947518 -45.09953591 1.43073971 -38.59542091 1.41901226 C-34.88138222 1.41242042 -31.16735993 1.40746337 -27.45331503 1.40683801 C-23.46634848 1.40613078 -19.47941972 1.39782559 -15.49246311 1.3886652 C-14.32070926 1.38968787 -13.14895541 1.39071054 -11.94169387 1.39176419 C-10.89018519 1.38808348 -9.8386765 1.38440277 -8.75530392 1.38061053 C-7.84203736 1.37951866 -6.92877081 1.3784268 -5.98782951 1.37730185 C-3.28147117 1.20926817 -2.97415926 0.25311994 0 0 Z " fill="#374D7E" transform="translate(818.9375,67.75)"/>
<path d="M0 0 C231.66 0 463.32 0 702 0 C702 1.65 702 3.3 702 5 C700.68 5.33 699.36 5.66 698 6 C697.67 4.68 697.34 3.36 697 2 C467.98 1.67 238.96 1.34 3 1 C3 2.32 3 3.64 3 5 C2.34 5 1.68 5 1 5 C1 6.65 1 8.3 1 10 C0.67 10 0.34 10 0 10 C0 6.7 0 3.4 0 0 Z " fill="#203870" transform="translate(97,97)"/>
<path d="M0 0 C0.33 0 0.66 0 1 0 C1 27.39 1 54.78 1 83 C1.66 83 2.32 83 3 83 C3.0252689 89.81761894 3.04283244 96.63522589 3.05493164 103.45288086 C3.05997333 105.77417451 3.06680651 108.09546497 3.07543945 110.41674805 C3.08751225 113.74528795 3.09322979 117.07378602 3.09765625 120.40234375 C3.10281754 121.44712387 3.10797882 122.49190399 3.11329651 123.56834412 C3.11337204 124.52926468 3.11344757 125.49018524 3.11352539 126.48022461 C3.115746 127.33071884 3.11796661 128.18121307 3.12025452 129.05747986 C3 131 3 131 2 132 C1.87485589 134.70753726 1.81392872 137.39082104 1.79467773 140.09985352 C1.78477814 140.94856018 1.77487854 141.79726685 1.76467896 142.67169189 C1.73296753 145.49073449 1.70826861 148.30979398 1.68359375 151.12890625 C1.66303254 153.07804311 1.6420363 155.02717544 1.62062073 156.9763031 C1.56531402 162.11701793 1.5159428 167.25777357 1.46777344 172.39855957 C1.41762103 177.64009247 1.36190237 182.8815658 1.30664062 188.12304688 C1.19895394 198.41531375 1.09753247 208.70763225 1 219 C1.66 219 2.32 219 3 219 C3.02312359 229.41342925 3.04091517 239.82685244 3.05181217 250.24030209 C3.05704097 255.07516827 3.06413854 259.91001694 3.07543945 264.74487305 C3.08626847 269.4067712 3.09227686 274.06865246 3.09487724 278.73056221 C3.09673147 280.51324288 3.10035203 282.29592259 3.10573006 284.07859612 C3.11294069 286.5666596 3.11399093 289.05465243 3.11352539 291.54272461 C3.11712067 292.28718842 3.12071594 293.03165222 3.12442017 293.79867554 C3.11405216 298.88594784 3.11405216 298.88594784 2 300 C1.89060084 302.27793744 1.85306341 304.55932401 1.84178162 306.83985901 C1.83684364 307.5635022 1.83190566 308.28714539 1.82681805 309.03271717 C1.81136852 311.47566643 1.80306239 313.91858927 1.79467773 316.36157227 C1.78510506 318.10554235 1.77509535 319.84951009 1.76467896 321.59347534 C1.73755765 326.34324967 1.71658734 331.093034 1.69667697 335.84284329 C1.67486182 340.80100422 1.64745134 345.75913403 1.62062073 350.7172699 C1.57063318 360.11307573 1.52571692 369.50889877 1.48259836 378.90473837 C1.43327768 389.59865358 1.37834045 400.29253759 1.32291877 410.98642266 C1.2090057 432.99091939 1.10218707 454.99544589 1 477 C0.67 477 0.34 477 0 477 C0 319.59 0 162.18 0 0 Z " fill="#2F4B73" transform="translate(706,213)"/>
<path d="M0 0 C3.65588058 7.31176117 3.26025959 15.93195278 3 24 C2.67 24.33 2.34 24.66 2 25 C1.90110207 26.37008958 1.87131915 27.74523974 1.86938947 29.11889273 C1.86570876 30.01415894 1.86202805 30.90942515 1.85823581 31.83182064 C1.85976981 33.32714093 1.85976981 33.32714093 1.8613348 34.85266972 C1.85849258 35.90568037 1.85565036 36.95869102 1.85272202 38.04361108 C1.84431109 41.61966296 1.84310184 45.19568272 1.84178162 48.77174377 C1.83722061 51.34235825 1.83222128 53.91297198 1.82681805 56.48358482 C1.81573141 62.09708424 1.80837776 67.71057911 1.80341911 73.32408714 C1.79602904 81.67125805 1.78294967 90.01841313 1.76867336 98.36557475 C1.74482476 112.40464212 1.72563664 126.44371229 1.70907402 140.48278999 C1.6926519 154.38995307 1.67417714 168.29711091 1.65294075 182.2042675 C1.65162314 183.06789281 1.65030554 183.93151811 1.648948 184.82131388 C1.64224623 189.20695295 1.63550758 193.59259196 1.62875474 197.97823095 C1.58094915 229.06873417 1.53777638 260.15924228 1.49731445 291.24975586 C1.4579875 321.46004594 1.41657056 351.67033196 1.37231445 381.88061523 C1.37095192 382.81128054 1.36958939 383.74194585 1.36818558 384.70081313 C1.35450059 394.04665172 1.34077302 403.39249025 1.32701423 412.73832873 C1.29898517 431.77810238 1.27124046 450.81787644 1.2436676 469.85765076 C1.2423994 470.73313307 1.2411312 471.60861538 1.23982458 472.51062745 C1.15512087 531.00707839 1.07706715 589.50353856 1 648 C0.67 648 0.34 648 0 648 C0 434.16 0 220.32 0 0 Z " fill="#324A70" transform="translate(825,73)"/>
<path d="M0 0 C0.6720472 0.01281384 1.34409439 0.02562767 2.03650665 0.0388298 C10.00400142 0.19257518 17.97095521 0.36564667 25.9375 0.5625 C25.9375 0.8925 25.9375 1.2225 25.9375 1.5625 C58.6075 2.0575 58.6075 2.0575 91.9375 2.5625 C91.9375 2.8925 91.9375 3.2225 91.9375 3.5625 C-24.2225 3.5625 -140.3825 3.5625 -260.0625 3.5625 C-260.0625 3.2325 -260.0625 2.9025 -260.0625 2.5625 C-245.96834929 1.21096411 -231.83799789 1.43157648 -217.6946671 1.46110606 C-214.1473124 1.46742883 -210.59995652 1.46795036 -207.05259705 1.46913147 C-200.35947079 1.47221881 -193.6663612 1.48039657 -186.97324222 1.49048096 C-179.34305396 1.50172354 -171.71286484 1.50717291 -164.08267033 1.51217639 C-148.40927063 1.52258186 -132.73588748 1.5401301 -117.0625 1.5625 C-117.0625 1.2325 -117.0625 0.9025 -117.0625 0.5625 C-104.85442 0.35721676 -92.64610961 0.17087645 -80.4375 0 C-79.07402372 -0.0190999 -79.07402372 -0.0190999 -77.68300247 -0.03858566 C-51.77983759 -0.39638014 -25.90159054 -0.49443203 0 0 Z " fill="#24467F" transform="translate(517.0625,793.4375)"/>
<path d="M0 0 C10.23 0 20.46 0 31 0 C31 10.23 31 20.46 31 31 C28.4638482 27.61846427 27.08577182 25.04840551 25.4375 21.25 C20.10515155 10.48049036 10.59127058 5.80428769 0 1 C0 0.67 0 0.34 0 0 Z " fill="#F4F7F9" transform="translate(865,0)"/>
<path d="M0 0 C0.99 0.33 1.98 0.66 3 1 C3.66796875 2.71484375 3.66796875 2.71484375 4.1875 4.9375 C6.57267647 12.8376083 12.35431376 19.26187185 19 24 C21.30897604 24.97613287 21.30897604 24.97613287 23.625 25.5625 C27.31833981 26.57722305 28.09336808 27.09336808 31 30 C20.77 30 10.54 30 0 30 C0 20.1 0 10.2 0 0 Z " fill="#F4F6F9" transform="translate(0,866)"/>
<path d="M0 0 C0.33 0 0.66 0 1 0 C1 9.9 1 19.8 1 30 C-8.9 30 -18.8 30 -29 30 C-29 29.34 -29 28.68 -29 28 C-28.41734375 27.82726562 -27.8346875 27.65453125 -27.234375 27.4765625 C-19.16952383 24.71219527 -12.92716537 20.08659862 -7 14 C-5.78036961 11.52931055 -5.78036961 11.52931055 -5 9 C-4.15106911 7.38188627 -3.27647368 5.77694044 -2.375 4.1875 C-1.92898438 3.39730469 -1.48296875 2.60710938 -1.0234375 1.79296875 C-0.68570313 1.20128906 -0.34796875 0.60960937 0 0 Z " fill="#F3F5F9" transform="translate(895,866)"/>
<path d="M0 0 C9.57 0 19.14 0 29 0 C26 3 26 3 22.5 4.5625 C11.34485783 10.07832676 5.81325823 17.68765101 1.92578125 29.0703125 C1.62027344 30.03710938 1.31476562 31.00390625 1 32 C0.67 32 0.34 32 0 32 C0 21.44 0 10.88 0 0 Z " fill="#F7F8FA" transform="translate(0,0)"/>
<path d="M0 0 C0.6720472 0.01281384 1.34409439 0.02562767 2.03650665 0.0388298 C10.00400142 0.19257518 17.97095521 0.36564667 25.9375 0.5625 C25.6075 1.2225 25.2775 1.8825 24.9375 2.5625 C-21.5925 2.5625 -68.1225 2.5625 -116.0625 2.5625 C-116.3925 1.9025 -116.7225 1.2425 -117.0625 0.5625 C-104.85442 0.35721676 -92.64610961 0.17087645 -80.4375 0 C-79.07402372 -0.0190999 -79.07402372 -0.0190999 -77.68300247 -0.03858566 C-51.77983759 -0.39638014 -25.90159054 -0.49443203 0 0 Z " fill="#254B8B" transform="translate(517.0625,793.4375)"/>
<path d="M0 0 C29.04 0 58.08 0 88 0 C88 0.33 88 0.66 88 1 C86.15535156 1.07347656 86.15535156 1.07347656 84.2734375 1.1484375 C82.64060434 1.22351029 81.00779288 1.29905615 79.375 1.375 C78.56675781 1.4059375 77.75851562 1.436875 76.92578125 1.46875 C75.73662109 1.52675781 75.73662109 1.52675781 74.5234375 1.5859375 C73.80075684 1.6173584 73.07807617 1.6487793 72.33349609 1.68115234 C69.90478477 1.91812832 69.90478477 1.91812832 67.41015625 3.02734375 C62.538161 4.41695064 57.94818528 4.13562488 52.9140625 3.9765625 C51.85714203 3.95153656 50.80022156 3.92651062 49.71127319 3.90072632 C46.34884164 3.8188189 42.98702327 3.7221155 39.625 3.625 C37.33986847 3.5667306 35.05471207 3.50942798 32.76953125 3.453125 C27.17935082 3.31328377 21.58960004 3.16130566 16 3 C16 2.34 16 1.68 16 1 C10.72 1 5.44 1 0 1 C0 0.67 0 0.34 0 0 Z " fill="#2C4871" transform="translate(616,697)"/>
<path d="M0 0 C0.66 0.33 1.32 0.66 2 1 C2.09267419 10.31848416 2.1637516 19.63680972 2.20724869 28.95565414 C2.22812503 33.28277614 2.25644312 37.60958288 2.30175781 41.93652344 C2.34521452 46.11217599 2.36913675 50.2875253 2.37950897 54.46338654 C2.38690072 56.0566307 2.40133521 57.64985824 2.42292023 59.24297333 C2.45195327 61.47452169 2.45595626 63.70481664 2.45410156 65.93652344 C2.46298401 67.20671326 2.47186646 68.47690308 2.48101807 69.7855835 C1.92050774 73.53120922 0.92303985 74.68938419 -2 77 C-2.33 76.01 -2.66 75.02 -3 74 C-2.34 74 -1.68 74 -1 74 C-0.67 49.58 -0.34 25.16 0 0 Z " fill="#334F7C" transform="translate(707,623)"/>
<path d="M0 0 C0.66 0 1.32 0 2 0 C2.02684679 2.64590014 2.04676357 5.29153096 2.0625 7.9375 C2.07087891 8.69224609 2.07925781 9.44699219 2.08789062 10.22460938 C2.09652441 12.14994313 2.05224333 14.07535581 2 16 C1.67 16.33 1.34 16.66 1 17 C0.87430497 19.1221998 0.82423227 21.24911345 0.8125 23.375 C0.79832031 24.53773438 0.78414063 25.70046875 0.76953125 26.8984375 C0.75700027 30.16797789 0.75700027 30.16797789 3 33 C3.33333333 39.33333333 3.33333333 39.33333333 2 42 C2.99 42.33 3.98 42.66 5 43 C5 43.66 5 44.32 5 45 C7.97 45.33 10.94 45.66 14 46 C14 46.33 14 46.66 14 47 C9.05 47 4.1 47 -1 47 C-1.02464347 40.46720661 -1.04283291 33.93444002 -1.05493164 27.40161133 C-1.05997317 25.17732268 -1.06680623 22.95303737 -1.07543945 20.72875977 C-1.08751298 17.53921691 -1.09322996 14.34971771 -1.09765625 11.16015625 C-1.10281754 10.15912369 -1.10797882 9.15809113 -1.11329651 8.12672424 C-1.11337204 7.20584518 -1.11344757 6.28496613 -1.11352539 5.33618164 C-1.115746 4.52121719 -1.11796661 3.70625275 -1.12025452 2.86659241 C-1 1 -1 1 0 0 Z " fill="#1F3B66" transform="translate(98,752)"/>
<path d="M0 0 C10.89 0 21.78 0 33 0 C32.67 0.66 32.34 1.32 32 2 C24.14304416 3.59343875 15.98406563 3.11050947 8 3.0625 C6.54297029 3.05747576 5.0859389 3.05291449 3.62890625 3.04882812 C0.0859023 3.03789388 -3.45703797 3.02068 -7 3 C-7 2.67 -7 2.34 -7 2 C-4.69 2 -2.38 2 0 2 C0 1.34 0 0.68 0 0 Z " fill="#284B8C" transform="translate(144,66)"/>
<path d="M0 0 C7.59 0 15.18 0 23 0 C23 0.33 23 0.66 23 1 C16.4 1 9.8 1 3 1 C1.97593888 4.07218336 1.8453464 6.26012175 1.79467773 9.48120117 C1.77473251 10.60213669 1.75478729 11.7230722 1.73423767 12.87797546 C1.71752518 14.08742325 1.70081268 15.29687103 1.68359375 16.54296875 C1.66281265 17.78170242 1.64203156 19.0204361 1.62062073 20.29670715 C1.56628203 23.58625256 1.51604049 26.87582726 1.46777344 30.16546631 C1.41749354 33.52377814 1.36184139 36.88200046 1.30664062 40.24023438 C1.19946952 46.82675159 1.09769865 53.41333584 1 60 C0.67 60 0.34 60 0 60 C0 40.2 0 20.4 0 0 Z " fill="#F2F8FE" transform="translate(602,212)"/>
<path d="M0 0 C9.06335876 -0.10234659 17.98175113 -0.06996173 27 1 C23.42609149 3.38260567 20.22445691 3.95825635 16 4 C14.31923769 3.36971413 12.65204456 2.70211894 11 2 C8.30781517 1.82321488 5.70235299 1.90839481 3 2 C3 2.66 3 3.32 3 4 C2.01 3.67 1.02 3.34 0 3 C0 2.01 0 1.02 0 0 Z " fill="#324E7A" transform="translate(600,697)"/>
<path d="M0 0 C1.32 0 2.64 0 4 0 C4.84191782 2.9248633 5.11819313 5.50741656 5.09765625 8.546875 C5.09282227 9.81337891 5.09282227 9.81337891 5.08789062 11.10546875 C5.07951172 11.97816406 5.07113281 12.85085937 5.0625 13.75 C5.05798828 14.63816406 5.05347656 15.52632812 5.04882812 16.44140625 C5.037074 18.62767329 5.02064249 20.81380179 5 23 C4.34 23.33 3.68 23.66 3 24 C2.94465088 23.45061768 2.88930176 22.90123535 2.83227539 22.33520508 C2.57818747 19.82737577 2.32037701 17.31994239 2.0625 14.8125 C1.97548828 13.94818359 1.88847656 13.08386719 1.79882812 12.19335938 C1.3732769 8.0796975 0.92796186 4.03788809 0 0 Z " fill="#2E4D84" transform="translate(825,72)"/>
<path d="M0 0 C0.66 0 1.32 0 2 0 C2 5.28 2 10.56 2 16 C1.01 16 0.02 16 -1 16 C-1.02685095 13.52076199 -1.04676547 11.0418116 -1.0625 8.5625 C-1.07506836 7.50192383 -1.07506836 7.50192383 -1.08789062 6.41992188 C-1.09653588 4.61306441 -1.05220011 2.80612397 -1 1 C-0.67 0.67 -0.34 0.34 0 0 Z " fill="#2C4976" transform="translate(98,752)"/>
<path d="M0 0 C0.99 0.33 1.98 0.66 3 1 C3.19818283 7.70518586 3.30844801 13.65176798 1 20 C0.67 20 0.34 20 0 20 C0 13.4 0 6.8 0 0 Z " fill="#2E4979" transform="translate(98,116)"/>
<path d="M0 0 C0.99 0 1.98 0 3 0 C3 0.99 3 1.98 3 3 C-7.23 3 -17.46 3 -28 3 C-28 2.67 -28 2.34 -28 2 C-18.76 2 -9.52 2 0 2 C0 1.34 0 0.68 0 0 Z " fill="#223D6E" transform="translate(796,796)"/>
<path d="M0 0 C1 2 1 2 1 6 C-0.31787285 7.02028865 -1.65210653 8.01971384 -3 9 C-3.79623822 11.09415804 -3.79623822 11.09415804 -4 13 C-5.65 12.67 -7.3 12.34 -9 12 C-8.236875 11.29875 -7.47375 10.5975 -6.6875 9.875 C-4.02762837 7.02955593 -2.59940619 4.51869363 -1 1 C-0.67 0.67 -0.34 0.34 0 0 Z " fill="#D8DFED" transform="translate(891,874)"/>
<path d="M0 0 C1.35015859 4.05047576 0.62084998 6.7920168 0 11 C0.66 11.33 1.32 11.66 2 12 C1.01 12 0.02 12 -1 12 C-3.32590854 8.36576791 -3.16265833 5.22911669 -3 1 C-2.01 0.67 -1.02 0.34 0 0 Z " fill="#435881" transform="translate(6,864)"/>
<path d="M0 0 C0.66 0 1.32 0 2 0 C2.34833144 4.87664009 1.41685712 7.77050005 -1 12 C-1.33 12 -1.66 12 -2 12 C-1.67 9.36 -1.34 6.72 -1 4 C-1.66 4 -2.32 4 -3 4 C-3 3.34 -3 2.68 -3 2 C-2.01 2 -1.02 2 0 2 C0 1.34 0 0.68 0 0 Z " fill="#5770A2" transform="translate(894,860)"/>
<path d="M0 0 C0.99 0.33 1.98 0.66 3 1 C3.94921875 3.06640625 3.94921875 3.06640625 4.6875 5.5625 C4.93886719 6.38878906 5.19023438 7.21507812 5.44921875 8.06640625 C5.63097656 8.70449219 5.81273437 9.34257812 6 10 C5.34 10 4.68 10 4 10 C4 9.01 4 8.02 4 7 C2.68 6.67 1.36 6.34 0 6 C0 4.02 0 2.04 0 0 Z " fill="#4D6284" transform="translate(888,19)"/>
<path d="M0 0 C-6.625 3 -6.625 3 -10 3 C-10 3.66 -10 4.32 -10 5 C-10.66 4.67 -11.32 4.34 -12 4 C-11.34 3.01 -10.68 2.02 -10 1 C-9.34 1 -8.68 1 -8 1 C-8 0.34 -8 -0.32 -8 -1 C-4.59745511 -2.2151946 -3.06748874 -1.86240388 0 0 Z " fill="#596D9A" transform="translate(876,891)"/>
<path d="M0 0 C0.66 0.33 1.32 0.66 2 1 C1 4 1 4 -1 5 C-1.65555119 7.52733235 -1.65555119 7.52733235 -2 10 C-2.99 10.33 -3.98 10.66 -5 11 C-5.68359375 9.234375 -5.68359375 9.234375 -6 7 C-4.78515625 5.078125 -4.78515625 5.078125 -3.0625 3.25 C-2.49660156 2.63640625 -1.93070313 2.0228125 -1.34765625 1.390625 C-0.90292969 0.93171875 -0.45820313 0.4728125 0 0 Z " fill="#5A6C8C" transform="translate(11,12)"/>
<path d="M0 0 C3.3 0 6.6 0 10 0 C9.67 1.65 9.34 3.3 9 5 C4.89198233 3.81323934 3.10551666 3.10551666 0 0 Z " fill="#C7D5E2" transform="translate(865,0)"/>
<path d="M0 0 C3.51509398 3.51509398 4.45972123 6.3791637 6 11 C3.525 10.01 3.525 10.01 1 9 C0.67 6.03 0.34 3.06 0 0 Z " fill="#334C7E" transform="translate(6,869)"/>
<path d="M0 0 C3 3 3 3 3.25 6.5625 C3 10 3 10 2 12 C2.99 12.33 3.98 12.66 5 13 C3.68 13.33 2.36 13.66 1 14 C0.67 9.38 0.34 4.76 0 0 Z " fill="#26457A" transform="translate(98,782)"/>
<path d="M0 0 C1.53166168 4.08443115 0.63081652 7.79455657 0 12 C-1.32 12.33 -2.64 12.66 -4 13 C-3.52140759 11.39566191 -3.04210442 9.79153584 -2.5625 8.1875 C-2.29566406 7.29417969 -2.02882812 6.40085937 -1.75390625 5.48046875 C-1.19612127 3.64526945 -0.60655425 1.81966274 0 0 Z " fill="#5F7098" transform="translate(4,21)"/>
<path d="M0 0 C0 0.99 0 1.98 0 3 C-2.97 3 -5.94 3 -9 3 C-9.33 2.34 -9.66 1.68 -10 1 C-6.59437148 0.22157062 -3.49234244 -0.09978121 0 0 Z " fill="#25477F" transform="translate(112,795)"/>
<path d="M0 0 C3.40320742 1.01176437 4.75725331 1.64843582 6.8125 4.625 C7.204375 5.40875 7.59625 6.1925 8 7 C7.34 7 6.68 7 6 7 C5.34 6.34 4.68 5.68 4 5 C1.42938689 4.35232207 1.42938689 4.35232207 -1 4 C-0.67 2.68 -0.34 1.36 0 0 Z " fill="#4F6387" transform="translate(881,11)"/>
<path d="M0 0 C0.99 0.33 1.98 0.66 3 1 C3.73046875 2.84765625 3.73046875 2.84765625 4.1875 5.0625 C4.34605469 5.79597656 4.50460938 6.52945313 4.66796875 7.28515625 C4.83232422 8.13400391 4.83232422 8.13400391 5 9 C2.525 8.01 2.525 8.01 0 7 C0 4.69 0 2.38 0 0 Z " fill="#C9D2E6" transform="translate(0,866)"/>
<path d="M0 0 C0.66 0.33 1.32 0.66 2 1 C1.67 2.98 1.34 4.96 1 7 C-0.65 7.33 -2.3 7.66 -4 8 C-3.67 6.68 -3.34 5.36 -3 4 C-2.34 4 -1.68 4 -1 4 C-0.67 2.68 -0.34 1.36 0 0 Z " fill="#2E4B7E" transform="translate(13,12)"/>
<path d="M0 0 C2.31 0 4.62 0 7 0 C7 0.99 7 1.98 7 3 C4.36 3.33 1.72 3.66 -1 4 C-0.67 2.68 -0.34 1.36 0 0 Z " fill="#304A86" transform="translate(73,67)"/>
<path d="M0 0 C-2.1554668 2.47878682 -3.71119485 3.57563804 -7 4 C-7.66 3.67 -8.32 3.34 -9 3 C-9 2.34 -9 1.68 -9 1 C-6.04335481 -0.4783226 -3.25770263 -0.06032783 0 0 Z " fill="#E8EFFA" transform="translate(29,0)"/>
<path d="M0 0 C0.99 0.33 1.98 0.66 3 1 C0.25 6.875 0.25 6.875 -2 8 C-1.125 2.25 -1.125 2.25 0 0 Z " fill="#596A8B" transform="translate(888,874)"/>
<path d="M0 0 C2.475 0.495 2.475 0.495 5 1 C5 1.66 5 2.32 5 3 C5.66 3.33 6.32 3.66 7 4 C6.34 5.32 5.68 6.64 5 8 C4.731875 7.030625 4.46375 6.06125 4.1875 5.0625 C3.795625 4.051875 3.40375 3.04125 3 2 C2.01 1.67 1.02 1.34 0 1 C0 0.67 0 0.34 0 0 Z " fill="#314B78" transform="translate(882,15)"/>
<path d="M0 0 C2.33944736 0.28730055 4.6739143 0.61936779 7 1 C7 1.66 7 2.32 7 3 C4.125 3.125 4.125 3.125 1 3 C0.34 2.34 -0.32 1.68 -1 1 C-0.67 0.67 -0.34 0.34 0 0 Z " fill="#374F7B" transform="translate(868,4)"/>
<path d="M0 0 C0.33 0.99 0.66 1.98 1 3 C-3.455 3.495 -3.455 3.495 -8 4 C-5.17555626 1.17555626 -3.97077188 0 0 0 Z " fill="#697A9A" transform="translate(28,2)"/>
</svg>
